<?xml version="1.0" encoding="utf-8"?>
<!-- Svg Vector Icons : http://www.onlinewebfonts.com/icon -->
<!DOCTYPE svg PUBLIC "-//W3C//DTD SVG 1.1//EN" "http://www.w3.org/Graphics/SVG/1.1/DTD/svg11.dtd">
<svg version="1.1" xmlns="http://www.w3.org/2000/svg" xmlns:xlink="http://www.w3.org/1999/xlink" x="0px" y="0px" viewBox="0 0 1000 1000" enable-background="new 0 0 1000 1000" xml:space="preserve">
<metadata> Svg Vector Icons : http://www.onlinewebfonts.com/icon </metadata>
<g><path d="M500,989.9C229.5,989.9,10,770.7,10,500C10,229.4,229.5,10.1,500,10.1c270.7,0,490,219.3,490,489.8C990,770.7,770.7,989.9,500,989.9L500,989.9L500,989.9z M500,99.3c-221.4,0-400.8,179.5-400.8,400.8C99.2,721.4,278.6,901,500,901c221.4,0,400.8-179.5,400.8-400.8C900.8,278.7,721.4,99.3,500,99.3L500,99.3L500,99.3z"/></g>
</svg>